<svg xmlns="http://www.w3.org/2000/svg" width="168" height="42" viewBox="0 0 168 42">
  <g fill="none">
    <path fill="#231F20" stroke="#231F20" stroke-width=".5" d="M53.7142768 10.9152542L53.7142768 14.656455C53.7142768 16.058605 54.3207888 16.6583069 55.1384414 16.6583069 56.0368243 16.6583069 56.6247062 16.0415316 56.6247062 14.656455L56.6247062 10.9152542 57.4237288 10.9152542 57.4237288 14.6009666C57.4237288 16.5366592 56.4342656 17.3220339 55.1115313 17.3220339 53.8695273 17.3220339 52.9152542 16.5921476 52.9152542 14.6287108L52.9152542 10.9152542 53.7142768 10.9152542zM59.3220339 17.0847458L59.3220339 10.9152542 60.2228302 10.9152542 62.2383885 14.0355049C62.6579823 14.6791322 63.0339403 15.3488923 63.3638489 16.0404852L63.3916645 16.0404852C63.3167765 15.2050767 63.2996592 14.4657402 63.2996592 13.5050205L63.2996592 10.9152542 64.0677966 10.9152542 64.0677966 17.0847458 63.2418884 17.0847458 61.2348887 13.951964C60.8006384 13.2907125 60.4117937 12.602078 60.0709144 11.8905936L60.0409592 11.8905936C60.0880317 12.669612 60.09873 13.411037 60.09873 14.4365009L60.09873 17.0847458 59.3220339 17.0847458z"/>
    <polygon fill="#231F20" stroke="#231F20" stroke-width=".5" points="66.441 10.915 66.441 17.085 65.729 17.085 65.729 10.915"/>
    <path fill="#231F20" stroke="#231F20" stroke-width=".5" d="M69.6951924,17.0847458 L67.6271186,10.923597 L68.5170947,10.923597 L69.4988428,13.9582861 C69.7613537,14.7925648 69.9939853,15.5392443 70.1732611,16.2525527 L70.190335,16.2525527 C70.3696107,15.54133 70.617182,14.7633651 70.9117064,13.9582861 L71.978824,10.9152542 L72.8474576,10.9152542 L70.5894369,17.0847458 L69.6951924,17.0847458 Z"/>
    <polygon fill="#231F20" stroke="#231F20" stroke-width=".5" points="77.067 14.188 74.622 14.188 74.622 16.416 77.356 16.416 77.356 17.085 73.797 17.085 73.797 10.915 77.217 10.915 77.217 11.584 74.622 11.584 74.622 13.532 77.067 13.532"/>
    <path fill="#231F20" stroke="#231F20" stroke-width=".5" d="M78.7963992 11.0415425C79.3025179 10.9577087 79.8147806 10.9154684 80.3279415 10.9152542 81.181588 10.9152542 81.7402243 11.0788079 82.1168331 11.4141963 82.434399 11.7207793 82.6074489 12.1451059 82.5938709 12.5839154 82.6011032 13.2981697 82.1302897 13.9311444 81.4389373 14.1366397L81.4389373 14.1635536C81.9055137 14.3271073 82.1900626 14.7618701 82.3365216 15.4057331 82.5457486 16.2586964 82.6859308 16.8549426 82.8135593 17.0847458L81.9892046 17.0847458C81.8066822 16.6117543 81.6714334 16.1222053 81.5853963 15.6231145 81.4012765 14.7805028 81.0623286 14.4616767 80.3300338 14.4347628L79.5768162 14.4347628 79.5768162 17.0847458 78.779661 17.0847458 78.7963992 11.0415425zM79.5935544 13.8281652L80.4116323 13.8281652C81.2631866 13.8281652 81.8050847 13.3644182 81.8050847 12.6667273 81.8050847 11.8779434 81.227618 11.5322034 80.3823405 11.5322034 80.1177911 11.5234572 79.8531065 11.5449932 79.5935544 11.5963827L79.5935544 13.8281652zM83.9776545 16.2425201C84.4124751 16.5082618 84.9136116 16.6488934 85.4247929 16.6486239 86.2547693 16.6486239 86.7399863 16.2151659 86.7399863 15.5965415 86.7399863 15.0242086 86.4037395 14.6833339 85.5546097 14.3698133 84.528844 14.0015845 83.8946568 13.4671266 83.8946568 12.6002107 83.8946568 11.6322949 84.70548 10.9168788 85.927035 10.9168788 86.4059335 10.9007453 86.8811443 11.0049968 87.308201 11.2198785L87.0847458 11.876378C86.7246642 11.6704192 86.3153474 11.5636121 85.8993692 11.5670657 85.0481113 11.5670657 84.7161207 12.0741695 84.7161207 12.4992108 84.7161207 13.0799603 85.0970586 13.3661267 85.9653416 13.6985848 87.029414 14.1046886 87.559322 14.6117923 87.559322 15.5228957 87.559322 16.4823949 86.8506498 17.3219566 85.367333 17.3219566 84.8059726 17.3258038 84.2531657 17.1858973 83.7627119 16.9158528L83.9776545 16.2425201z"/>
    <polygon fill="#231F20" stroke="#231F20" stroke-width=".5" points="89.932 10.915 89.932 17.085 89.22 17.085 89.22 10.915"/>
    <polygon fill="#231F20" stroke="#231F20" stroke-width=".5" points="92.975 11.592 91.119 11.592 91.119 10.915 95.627 10.915 95.627 11.592 93.771 11.592 93.771 17.085 92.977 17.085"/>
    <path fill="#231F20" stroke="#231F20" stroke-width=".5" d="M98.5050084,17.0847458 L98.5050084,14.4657402 L96.5762712,10.9152542 L97.4768969,10.9152542 L98.326117,12.617399 C98.5523015,13.0852277 98.7373616,13.4528075 98.9306465,13.8893084 L98.9491525,13.8893084 C99.1115942,13.4862238 99.3274976,13.0852277 99.5660194,12.617399 L100.439914,10.9152542 L101.322034,10.9152542 L99.294598,14.4657402 L99.294598,17.0847458 L98.5050084,17.0847458 Z"/>
    <path fill="#231F20" d="M53.0306346 26.9607197L51.733997 30.8411921 50.0677966 30.8411921 54.3272722 18.5084746 56.2511107 18.5084746 60.5084746 30.8474576 58.7873677 30.8474576 57.4548297 26.9607197 53.0306346 26.9607197zM57.1401733 25.707607L55.900554 22.1571211C55.621798 21.3530404 55.4380725 20.6199695 55.2522352 19.9056952L55.214223 19.9056952C55.0304975 20.6199695 54.8446602 21.3885453 54.5806867 22.1404129L53.3600735 25.7096956 57.1401733 25.707607zM61.9322034 18.7828621C63.0586361 18.5973335 64.198621 18.5056008 65.3403373 18.5085432 67.6411429 18.5085432 69.2800729 19.0571092 70.3684905 20.049423 71.4905272 21.0584847 72.1355932 22.4904311 72.1355932 24.4897131 72.1355932 26.4889951 71.4905272 28.1595993 70.3495798 29.3047378 69.1708109 30.4603437 67.2545235 31.0842034 64.8423547 31.0842034 63.8702968 31.0905238 62.8986683 31.0415963 61.9322034 30.9376592L61.9322034 18.7828621zM63.5354131 29.7192486C64.0733637 29.7772286 64.6144219 29.8017002 65.1554324 29.7925207 68.5992866 29.7925207 70.4420322 27.8853523 70.4420322 24.5441438 70.4588418 21.6279137 68.8031022 19.7730824 65.413879 19.7730824 64.7836533 19.7629297 64.1540856 19.8183587 63.5354131 19.9384681L63.5354131 29.7192486zM84.2705124 25.4360993C84.1788213 23.7151578 84.0621235 21.6287252 84.0621235 20.1082818L84.0266974 20.1082818C83.5932484 21.5368303 83.0993667 23.0927785 82.4741999 24.7949233L80.2986196 30.7806249 79.0941317 30.7806249 77.0852625 24.9056149C76.4996897 23.1470801 76.0245629 21.563981 75.6786373 20.1020162L75.6411273 20.1020162C75.6057012 21.6391678 75.5140101 23.6900956 75.403564 25.5572335L75.0743095 30.8474576 73.559322 30.8474576 74.4178844 18.5084746 76.4455085 18.5084746 78.5460688 24.4774681C79.0566217 25.995823 79.4588123 27.3512732 79.7964023 28.6336252L79.8339123 28.6336252C80.1610829 27.3805125 80.6007836 26.0334163 81.1488464 24.4774681L83.3410978 18.5084746 85.3666381 18.5084746 86.1355932 30.8474576 84.5580891 30.8474576 84.2705124 25.4360993z"/>
    <polygon fill="#231F20" points="90.169 18.508 90.169 30.847 88.508 30.847 88.508 18.508"/>
    <path fill="#231F20" d="M92.7264574 29.1587875C93.5957118 29.6883927 94.5970447 29.9690743 95.6186061 29.9694799 97.2785589 29.9694799 98.2489929 29.1041813 98.2489929 27.8524387 98.2489929 26.7099086 97.5764992 26.0294311 95.8782397 25.4035598 93.8267082 24.6663759 92.558334 23.5994544 92.558334 21.8688573 92.558334 19.9366372 94.1821084 18.5084746 96.6252185 18.5084746 97.9021053 18.5084746 98.8448735 18.8025081 99.3918066 19.1154437L98.9448963 20.4238927C98.2227252 20.022444 97.4049878 19.8186963 96.5762712 19.8337255 94.8588584 19.8337255 94.2076461 20.8460408 94.2076461 21.6924372 94.2076461 22.8538695 94.9716501 23.4230343 96.706088 24.0867099 98.8342327 24.8974022 99.8983051 25.9097175 99.8983051 27.7327251 99.8983051 29.646043 98.4809607 31.3220339 95.514327 31.3220339 94.3012845 31.3220339 92.9775785 30.9523918 92.3050847 30.5113416L92.7264574 29.1587875zM101.26883 29.1587875C102.137196 29.688631 103.137919 29.9693483 104.158851 29.9694799 105.818804 29.9694799 106.789238 29.1041813 106.789238 27.8524387 106.789238 26.7099086 106.118872 26.0294311 104.420613 25.4035598 102.369081 24.6663759 101.100707 23.5994544 101.100707 21.8688573 101.100707 19.9366372 102.722353 18.5084746 105.167591 18.5084746 106.444478 18.5084746 107.387246 18.8025081 107.93418 19.1154437L107.487269 20.4238927C106.764318 20.0224621 105.945904 19.8187288 105.116516 19.8337255 103.401231 19.8337255 102.747891 20.8460408 102.747891 21.6924372 102.747891 22.8538695 103.511895 23.4230343 105.248461 24.0867099 107.376606 24.8974022 108.440678 25.9097175 108.440678 27.7327251 108.440678 29.646043 107.021205 31.3220339 104.0567 31.3220339 102.843657 31.3220339 101.519951 30.9523918 100.847458 30.5113416L101.26883 29.1587875z"/>
    <polygon fill="#231F20" points="112.237 18.508 112.237 30.847 110.576 30.847 110.576 18.508"/>
    <path fill="#231F20" d="M125.525424 24.5552345C125.525424 28.8040328 122.920045 31.0847458 119.73874 31.0847458 116.428749 31.0847458 114.135593 28.5270741 114.135593 24.7755425 114.135593 20.8393718 116.576422 18.2711978 119.9054 18.2711978 123.322982 18.2649147 125.525424 20.8582554 125.525424 24.5552345zM115.835946 24.7398736C115.835946 27.4066502 117.278925 29.7754864 119.831563 29.7754864 122.384202 29.7754864 123.825071 27.440221 123.825071 24.6265723 123.825071 22.1444348 122.531875 19.5699777 119.84844 19.5699777 117.165005 19.5699777 115.835946 22.0353299 115.835946 24.7398736L115.835946 24.7398736zM127.423729 30.8474576L127.423729 18.5084746 129.17453 18.5084746 133.101328 24.7510643C133.919655 26.0378115 134.652145 27.3773892 135.293999 28.761025L135.348191 28.7422283C135.20229 27.0943851 135.166858 25.5948269 135.166858 23.6712989L135.166858 18.5084746 136.677966 18.5084746 136.677966 30.8474576 135.07098 30.8474576 131.160857 24.5818941C130.30725 23.2602181 129.541357 21.8836939 128.86814 20.4612419L128.811864 20.4800386C128.903573 22.0359868 128.922332 23.5188369 128.922332 25.5697646L128.922332 30.8411921 127.423729 30.8474576zM138.758345 29.1587875C139.627843 29.6883927 140.629457 29.9690743 141.651305 29.9694799 143.311723 29.9694799 144.282429 29.1041813 144.282429 27.8524387 144.282429 26.7099086 143.609747 26.0294311 141.91314 25.4035598 139.858904 24.6663759 138.590175 23.5994544 138.590175 21.8688573 138.590175 19.9366372 140.214404 18.5084746 142.658199 18.5084746 143.935444 18.5084746 144.878476 18.8025081 145.425563 19.1154437L144.978527 20.4238927C144.25627 20.0221574 143.438223 19.8183897 142.609238 19.8337255 140.891344 19.8337255 140.239949 20.8460408 140.239949 21.6924372 140.239949 22.8538695 141.004167 23.4230343 142.739091 24.0867099 144.867833 24.8974022 145.932203 25.9097175 145.932203 27.7327251 145.932203 29.646043 144.514462 31.3220339 141.546996 31.3220339 140.333614 31.3220339 139.009537 30.9523918 138.338983 30.5113416L138.758345 29.1587875zM147.832153 30.13641C147.815803 29.8266656 147.921953 29.5235775 148.125508 29.2988 148.329063 29.0740226 148.611954 28.9475089 148.907301 28.9491525 149.534812 28.9491525 149.964054 29.4386642 149.964054 30.13641 149.982597 30.4498892 149.874562 30.7570718 149.666448 30.9826082 149.458335 31.2081447 149.169397 31.3311691 148.870509 31.3215045 148.261394 31.3215045 147.832153 30.8126868 147.832153 30.13641zM151.574033 29.1657748C152.443531 29.6957274 153.445145 29.9765931 154.466993 29.976999 156.127411 29.976999 157.098117 29.1111327 157.098117 27.858569 157.098117 26.7152893 156.425435 26.0343653 154.728828 25.4080834 152.674592 24.6704158 151.405863 23.6027944 151.405863 21.8710619 151.405863 19.9375742 153.030092 18.5084746 155.473887 18.5084746 156.751132 18.5084746 157.694164 18.802701 158.241251 19.1158419L157.794215 20.4251494C157.072049 20.0201425 156.253247 19.8133337 155.422797 19.8261885 153.704903 19.8261885 153.053508 20.8391679 153.053508 21.6861196 153.053508 22.8483138 153.817727 23.4178521 155.552651 24.0819631 157.681392 24.8931873 158.745763 25.9061667 158.745763 27.7303703 158.745763 29.6449435 157.328021 31.3220339 154.360556 31.3220339 153.147173 31.3220339 151.823096 30.9521493 151.152542 30.5108097L151.574033 29.1657748z"/>
    <polygon fill="#231F20" points="166.726 25.062 162 25.062 162 29.511 167.288 29.511 167.288 30.847 160.407 30.847 160.407 18.508 167.018 18.508 167.018 19.845 162 19.845 162 23.744 166.726 23.744"/>
    <polygon fill="#010101" points="20.313 22.147 24.986 22.147 24.275 14.433"/>
    <path fill="#010101" d="M35.5486722,6.321 C28.5309786,-0.711718307 17.5256604,-1.8039218 9.26418116,3.7124418 C1.00270191,9.22880541 -2.2135272,19.8170354 1.58271811,29.0007825 C5.37896342,38.1845297 15.1301581,43.4054653 24.8719301,41.4701754 C34.6137021,39.5348855 41.6322731,30.9824863 41.6347484,21.0441 C41.6471558,15.5210656 39.4564639,10.2214186 35.5486722,6.321 Z M25.9999114,32.865 L25.3934077,26.6532 L17.9768538,26.6532 L14.8289107,32.865 L7.61802231,32.865 L11.0702666,26.6532 L7.11015416,26.6532 L9.75022911,22.1466 L13.5088732,22.1466 L21.2276297,8.2236 L29.4542543,8.2236 L32.5014632,32.865 L25.9999114,32.865 Z"/>
    <path fill="#FFF" d="M21.2276297,8.1228 L13.5088732,22.05 L9.75022911,22.05 L7.11015416,26.5545 L11.0702666,26.5545 L7.61802231,32.76 L14.8289107,32.76 L17.9768538,26.5503 L25.3934077,26.5503 L26.0020101,32.76 L32.4007291,32.76 L29.3535201,8.1228 L21.2276297,8.1228 Z M20.3126275,22.1466 L24.2748386,14.5341 L24.9862737,22.1466 L20.3126275,22.1466 Z"/>
  </g>
</svg>
